<?xml version="1.0" encoding="UTF-8"?>
<svg xmlns="http://www.w3.org/2000/svg" viewBox="0 0 24 24" width="24px" height="24px">
  <path fill="#FF9900" d="M6.763 10.036c0 .296.032.535.088.71.064.176.144.368.256.576.04.063.056.127.056.183 0 .08-.048.16-.152.24l-.503.335a.383.383 0 0 1-.208.072c-.08 0-.16-.04-.239-.112a2.47 2.47 0 0 1-.287-.375 6.18 6.18 0 0 1-.248-.471c-.622.734-1.405 1.101-2.347 1.101-.67 0-1.205-.191-1.596-.574-.391-.384-.59-.894-.59-1.533 0-.678.239-1.23.726-1.644.487-.415 1.133-.623 1.955-.623.272 0 .551.024.846.064.296.04.6.104.918.176v-.583c0-.607-.127-1.03-.375-1.277-.255-.248-.686-.367-1.3-.367-.28 0-.568.031-.863.103-.295.072-.59.16-.877.272a2.29 2.29 0 0 1-.202.064.402.402 0 0 1-.112.023c-.103 0-.15-.08-.15-.247v-.391c0-.128.016-.224.056-.28a.627.627 0 0 1 .224-.167c.279-.144.614-.264 1.005-.36a4.83 4.83 0 0 1 1.246-.151c.95 0 1.644.215 2.091.646.439.43.662 1.085.662 1.963v2.586zm-3.24 1.214c.263 0 .534-.048.822-.144.287-.096.543-.271.758-.51.128-.152.224-.32.272-.512.047-.191.08-.423.08-.694v-.335a6.66 6.66 0 0 0-.735-.136 6.02 6.02 0 0 0-.75-.048c-.535 0-.925.104-1.19.32-.263.215-.39.518-.39.917 0 .375.095.654.295.843.196.187.47.288.838.288zm6.41.862c-.128 0-.216-.024-.279-.072-.063-.047-.12-.16-.167-.311L7.422 4.795a1.99 1.99 0 0 1-.097-.311c0-.12.063-.192.19-.192h.782c.151 0 .255.024.31.08.065.048.113.16.16.312l1.406 5.534 1.299-5.534c.04-.16.088-.264.151-.312a.549.549 0 0 1 .32-.08h.638c.152 0 .256.024.32.08.063.048.12.16.151.312l1.318 5.6 1.454-5.6c.048-.16.096-.264.16-.312a.55.55 0 0 1 .32-.08h.743c.127 0 .2.064.2.184a.426.426 0 0 1-.024.128 1.36 1.36 0 0 1-.072.2l-2.086 6.934c-.048.16-.096.264-.16.312a.544.544 0 0 1-.32.08h-.687c-.151 0-.255-.024-.32-.08-.063-.056-.12-.16-.151-.32L14.053 5.65l-1.28 5.415c-.04.16-.088.264-.151.32-.065.056-.177.08-.32.08zm10.256.215c-.415 0-.822-.048-1.229-.143a3.71 3.71 0 0 1-.997-.359.497.497 0 0 1-.215-.176.468.468 0 0 1-.056-.232v-.416c0-.16.064-.24.183-.24a.414.414 0 0 1 .128.024c.04.016.104.048.183.08.24.112.511.199.822.279.32.08.63.12.95.12.503 0 .894-.088 1.165-.264.27-.176.406-.423.406-.743 0-.22-.07-.4-.207-.56-.144-.158-.375-.302-.71-.43l-1.005-.312c-.5-.16-.871-.384-1.109-.662-.24-.278-.359-.59-.359-.935 0-.272.056-.519.167-.734.112-.216.271-.4.47-.55.2-.152.44-.272.694-.359.255-.087.534-.12.838-.12.144 0 .295.008.455.024.16.016.303.04.43.072.127.031.24.064.344.096.104.032.19.064.24.096a.52.52 0 0 1 .184.168.39.39 0 0 1 .064.232v.384c0 .168-.064.256-.184.256a.83.83 0 0 1-.304-.096 2.616 2.616 0 0 0-1.484-.311c-.456 0-.807.07-1.046.223-.24.152-.358.366-.358.65 0 .219.063.399.2.543.136.151.368.288.694.423l.987.312c.499.159.87.367 1.117.622.245.256.367.566.367.93 0 .287-.055.546-.16.779-.103.232-.255.43-.463.591-.208.16-.459.287-.75.375-.293.088-.614.136-.965.136zM16.5 8.846c.336.136.688.232 1.043.2.316-.024.635-.096.975-.224V5.408c-.262-.288-.563-.495-.911-.654a2.92 2.92 0 0 0-1.15-.247c-.486-.008-.914.096-1.274.303-.367.215-.566.51-.606.877-.04.39.027.734.231 1.06.195.32.525.591.902.787a74.6 74.6 0 0 0 .79.295z"/>
</svg> 